<mxfile host="app.diagrams.net" modified="2021-07-01T08:45:57.219Z" agent="5.0 (Macintosh; Intel Mac OS X 10_15_6) AppleWebKit/605.1.15 (KHTML, like Gecko) Version/14.0.3 Safari/605.1.15" etag="vdWMM99UZspp_pIsk3Fs" version="14.6.11" type="github">
  <diagram id="aHvPnWU5fVLfngHqtwDX" name="第 1 页">
    <mxGraphModel dx="946" dy="558" grid="1" gridSize="10" guides="1" tooltips="1" connect="1" arrows="1" fold="1" page="1" pageScale="1" pageWidth="827" pageHeight="1169" math="0" shadow="0">
      <root>
        <mxCell id="0" />
        <mxCell id="1" parent="0" />
        <mxCell id="Vko7lxeCuTxFHkX4izlY-2" value="second * write_size_per_second" style="rounded=0;whiteSpace=wrap;html=1;fontSize=16;fillColor=#dae8fc;strokeColor=#6c8ebf;fontStyle=1;fontFamily=Courier New;" vertex="1" parent="1">
          <mxGeometry x="200" y="120" width="360" height="120" as="geometry" />
        </mxCell>
      </root>
    </mxGraphModel>
  </diagram>
</mxfile>
